bicep_curl
version=1
nRows=545
nColumns=3
inDegrees=yes

# SIMM Motion File Header:
name bicep_curl
datacolumns 3
datarows 545
otherdata 1
range 0.0000 0.5440
endheader
time	/jointset/r_shoulder/r_shoulder_elev/value	/jointset/r_elbow/r_elbow_flex/value
0.0000	0.0000	55.4400
0.0010	0.0000	55.3744
0.0020	0.0000	55.3088
0.0030	0.0000	55.2432
0.0040	0.0000	55.1777
0.0050	0.0000	55.1121
0.0060	0.0000	55.0465
0.0070	0.0000	54.9809
0.0080	0.0000	54.9153
0.0090	0.0000	54.8497
0.0100	0.0000	54.7841
0.0110	0.0000	54.7186
0.0120	0.0000	54.6530
0.0130	0.0000	54.5874
0.0140	0.0000	54.5218
0.0150	0.0000	54.4562
0.0160	0.0000	54.3906
0.0170	0.0000	54.3250
0.0180	0.0000	54.2595
0.0190	0.0000	54.1939
0.0200	0.0000	54.1283
0.0210	0.0000	54.0627
0.0220	0.0000	53.9971
0.0230	0.0000	53.9315
0.0240	0.0000	53.8659
0.0250	0.0000	53.8004
0.0260	0.0000	53.7348
0.0270	0.0000	53.6692
0.0280	0.0000	53.6036
0.0290	0.0000	53.5380
0.0300	0.0000	53.4724
0.0310	0.0000	53.4068
0.0320	0.0000	53.3413
0.0330	0.0000	53.2757
0.0340	0.0000	53.2101
0.0350	0.0000	53.1445
0.0360	0.0000	53.0789
0.0370	0.0000	53.0133
0.0380	0.0000	52.9477
0.0390	0.0000	52.8822
0.0400	0.0000	52.8166
0.0410	0.0000	52.7510
0.0420	0.0000	52.6854
0.0430	0.0000	52.6198
0.0440	0.0000	52.5542
0.0450	0.0000	52.4886
0.0460	0.0000	52.4231
0.0470	0.0000	52.3575
0.0480	0.0000	52.2919
0.0490	0.0000	52.2263
0.0500	0.0000	52.1607
0.0510	0.0000	52.0951
0.0520	0.0000	52.0295
0.0530	0.0000	51.9640
0.0540	0.0000	51.8984
0.0550	0.0000	51.8328
0.0560	0.0000	51.7672
0.0570	0.0000	51.7016
0.0580	0.0000	51.6360
0.0590	0.0000	51.5705
0.0600	0.0000	51.5049
0.0610	0.0000	51.4393
0.0620	0.0000	51.3737
0.0630	0.0000	51.3081
0.0640	0.0000	51.2425
0.0650	0.0000	51.1769
0.0660	0.0000	51.1114
0.0670	0.0000	51.0458
0.0680	0.0000	50.9802
0.0690	0.0000	50.9146
0.0700	0.0000	50.8490
0.0710	0.0000	50.7834
0.0720	0.0000	50.7178
0.0730	0.0000	50.6523
0.0740	0.0000	50.5867
0.0750	0.0000	50.5211
0.0760	0.0000	50.4555
0.0770	0.0000	50.3899
0.0780	0.0000	50.3243
0.0790	0.0000	50.2587
0.0800	0.0000	50.1932
0.0810	0.0000	50.1276
0.0820	0.0000	50.0620
0.0830	0.0000	49.9964
0.0840	0.0000	49.9308
0.0850	0.0000	49.8652
0.0860	0.0000	49.7996
0.0870	0.0000	49.7341
0.0880	0.0000	49.6685
0.0890	0.0000	49.6029
0.0900	0.0000	49.5373
0.0910	0.0000	49.4717
0.0920	0.0000	49.4061
0.0930	0.0000	49.3405
0.0940	0.0000	49.2750
0.0950	0.0000	49.2094
0.0960	0.0000	49.1438
0.0970	0.0000	49.0782
0.0980	0.0000	49.0126
0.0990	0.0000	48.9470
0.1000	0.0000	48.8814
0.1010	0.0000	48.8159
0.1020	0.0000	48.7503
0.1030	0.0000	48.6847
0.1040	0.0000	48.6191
0.1050	0.0000	48.5535
0.1060	0.0000	48.4879
0.1070	0.0000	48.4223
0.1080	0.0000	48.3568
0.1090	0.0000	48.2912
0.1100	0.0000	48.2256
0.1110	0.0000	48.1600
0.1120	0.0000	48.0944
0.1130	0.0000	48.0288
0.1140	0.0000	47.9632
0.1150	0.0000	47.8977
0.1160	0.0000	47.8321
0.1170	0.0000	47.7665
0.1180	0.0000	47.7009
0.1190	0.0000	47.6353
0.1200	0.0000	47.5697
0.1210	0.0000	47.5041
0.1220	0.0000	47.4386
0.1230	0.0000	47.3730
0.1240	0.0000	47.3074
0.1250	0.0000	47.2418
0.1260	0.0000	47.1762
0.1270	0.0000	47.1106
0.1280	0.0000	47.0450
0.1290	0.0000	46.9795
0.1300	0.0000	46.9139
0.1310	0.0000	46.8483
0.1320	0.0000	46.7827
0.1330	0.0000	46.7171
0.1340	0.0000	46.6515
0.1350	0.0000	46.5859
0.1360	0.0000	46.5204
0.1370	0.0000	46.4548
0.1380	0.0000	46.3892
0.1390	0.0000	46.3236
0.1400	0.0000	46.2580
0.1410	0.0000	46.1924
0.1420	0.0000	46.1268
0.1430	0.0000	46.0613
0.1440	0.0000	45.9957
0.1450	0.0000	45.9301
0.1460	0.0000	45.8645
0.1470	0.0000	45.7989
0.1480	0.0000	45.7333
0.1490	0.0000	45.6677
0.1500	0.0000	45.6022
0.1510	0.0000	45.5366
0.1520	0.0000	45.4710
0.1530	0.0000	45.4054
0.1540	0.0000	45.3398
0.1550	0.0000	45.2742
0.1560	0.0000	45.2086
0.1570	0.0000	45.1431
0.1580	0.0000	45.0775
0.1590	0.0000	45.0119
0.1600	0.0000	44.9463
0.1610	0.0000	44.8807
0.1620	0.0000	44.8151
0.1630	0.0000	44.7495
0.1640	0.0000	44.6840
0.1650	0.0000	44.6184
0.1660	0.0000	44.5528
0.1670	0.0000	44.4872
0.1680	0.0000	44.4216
0.1690	0.0000	44.3560
0.1700	0.0000	44.2905
0.1710	0.0000	44.2249
0.1720	0.0000	44.1593
0.1730	0.0000	44.0937
0.1740	0.0000	44.0281
0.1750	0.0000	43.9625
0.1760	0.0000	43.8969
0.1770	0.0000	43.8314
0.1780	0.0000	43.7658
0.1790	0.0000	43.7002
0.1800	0.0000	43.6346
0.1810	0.0000	43.5690
0.1820	0.0000	43.5034
0.1830	0.0000	43.4378
0.1840	0.0000	43.3723
0.1850	0.0000	43.3067
0.1860	0.0000	43.2411
0.1870	0.0000	43.1755
0.1880	0.0000	43.1099
0.1890	0.0000	43.0443
0.1900	0.0000	42.9787
0.1910	0.0000	42.9132
0.1920	0.0000	42.8476
0.1930	0.0000	42.7820
0.1940	0.0000	42.7164
0.1950	0.0000	42.6508
0.1960	0.0000	42.5852
0.1970	0.0000	42.5196
0.1980	0.0000	42.4541
0.1990	0.0000	42.3885
0.2000	0.0000	42.3229
0.2010	0.0000	42.2573
0.2020	0.0000	42.1917
0.2030	0.0000	42.1261
0.2040	0.0000	42.0605
0.2050	0.0000	41.9950
0.2060	0.0000	41.9294
0.2070	0.0000	41.8638
0.2080	0.0000	41.7982
0.2090	0.0000	41.7326
0.2100	0.0000	41.6670
0.2110	0.0000	41.6014
0.2120	0.0000	41.5359
0.2130	0.0000	41.4703
0.2140	0.0000	41.4047
0.2150	0.0000	41.3391
0.2160	0.0000	41.2735
0.2170	0.0000	41.2079
0.2180	0.0000	41.1423
0.2190	0.0000	41.0768
0.2200	0.0000	41.0112
0.2210	0.0000	40.9456
0.2220	0.0000	40.8800
0.2230	0.0000	40.8144
0.2240	0.0000	40.7488
0.2250	0.0000	40.6832
0.2260	0.0000	40.6177
0.2270	0.0000	40.5521
0.2280	0.0000	40.4865
0.2290	0.0000	40.4209
0.2300	0.0000	40.3553
0.2310	0.0000	40.2897
0.2320	0.0000	40.2241
0.2330	0.0000	40.1586
0.2340	0.0000	40.0930
0.2350	0.0000	40.0274
0.2360	0.0000	39.9618
0.2370	0.0000	39.8962
0.2380	0.0000	39.8306
0.2390	0.0000	39.7650
0.2400	0.0000	39.6995
0.2410	0.0000	39.6339
0.2420	0.0000	39.5683
0.2430	0.0000	39.5027
0.2440	0.0000	39.4371
0.2450	0.0000	39.3715
0.2460	0.0000	39.3059
0.2470	0.0000	39.2404
0.2480	0.0000	39.1748
0.2490	0.0000	39.1092
0.2500	0.0000	39.0436
0.2510	0.0000	38.9780
0.2520	0.0000	38.9124
0.2530	0.0000	38.8468
0.2540	0.0000	38.7813
0.2550	0.0000	38.7157
0.2560	0.0000	38.6501
0.2570	0.0000	38.5845
0.2580	0.0000	38.5189
0.2590	0.0000	38.4533
0.2600	0.0000	38.3877
0.2610	0.0000	38.3222
0.2620	0.0000	38.2566
0.2630	0.0000	38.1910
0.2640	0.0000	38.1254
0.2650	0.0000	38.0598
0.2660	0.0000	37.9942
0.2670	0.0000	37.9286
0.2680	0.0000	37.8631
0.2690	0.0000	37.7975
0.2700	0.0000	37.7319
0.2710	0.0000	37.6663
0.2720	0.0000	37.6007
0.2730	0.0000	37.5351
0.2740	0.0000	37.4695
0.2750	0.0000	37.4040
0.2760	0.0000	37.3384
0.2770	0.0000	37.2728
0.2780	0.0000	37.2072
0.2790	0.0000	37.1416
0.2800	0.0000	37.0760
0.2810	0.0000	37.0105
0.2820	0.0000	36.9449
0.2830	0.0000	36.8793
0.2840	0.0000	36.8137
0.2850	0.0000	36.7481
0.2860	0.0000	36.6825
0.2870	0.0000	36.6169
0.2880	0.0000	36.5514
0.2890	0.0000	36.4858
0.2900	0.0000	36.4202
0.2910	0.0000	36.3546
0.2920	0.0000	36.2890
0.2930	0.0000	36.2234
0.2940	0.0000	36.1578
0.2950	0.0000	36.0923
0.2960	0.0000	36.0267
0.2970	0.0000	35.9611
0.2980	0.0000	35.8955
0.2990	0.0000	35.8299
0.3000	0.0000	35.7643
0.3010	0.0000	35.6987
0.3020	0.0000	35.6332
0.3030	0.0000	35.5676
0.3040	0.0000	35.5020
0.3050	0.0000	35.4364
0.3060	0.0000	35.3708
0.3070	0.0000	35.3052
0.3080	0.0000	35.2396
0.3090	0.0000	35.1741
0.3100	0.0000	35.1085
0.3110	0.0000	35.0429
0.3120	0.0000	34.9773
0.3130	0.0000	34.9117
0.3140	0.0000	34.8461
0.3150	0.0000	34.7805
0.3160	0.0000	34.7150
0.3170	0.0000	34.6494
0.3180	0.0000	34.5838
0.3190	0.0000	34.5182
0.3200	0.0000	34.4526
0.3210	0.0000	34.3870
0.3220	0.0000	34.3214
0.3230	0.0000	34.2559
0.3240	0.0000	34.1903
0.3250	0.0000	34.1247
0.3260	0.0000	34.0591
0.3270	0.0000	33.9935
0.3280	0.0000	33.9279
0.3290	0.0000	33.8623
0.3300	0.0000	33.7968
0.3310	0.0000	33.7312
0.3320	0.0000	33.6656
0.3330	0.0000	33.6000
0.3340	0.0000	33.6000
0.3350	0.0000	33.6000
0.3360	0.0000	33.6000
0.3370	0.0000	33.6000
0.3380	0.0000	33.6000
0.3390	0.0000	33.6000
0.3400	0.0000	33.6000
0.3410	0.0000	33.6000
0.3420	0.0000	33.6000
0.3430	0.0000	33.6000
0.3440	0.0000	33.6000
0.3450	0.0000	33.6000
0.3460	0.0000	33.6000
0.3470	0.0000	33.6000
0.3480	0.0000	33.6000
0.3490	0.0000	33.6000
0.3500	0.0000	33.6000
0.3510	0.0000	33.6000
0.3520	0.0000	33.6000
0.3530	0.0000	33.6000
0.3540	0.0000	33.6000
0.3550	0.0000	33.6000
0.3560	0.0000	33.6000
0.3570	0.0000	33.6000
0.3580	0.0000	33.6000
0.3590	0.0000	33.6000
0.3600	0.0000	33.6000
0.3610	0.0000	33.6000
0.3620	0.0000	33.6000
0.3630	0.0000	33.6000
0.3640	0.0000	33.6000
0.3650	0.0000	33.6000
0.3660	0.0000	33.6000
0.3670	0.0000	33.6000
0.3680	0.0000	33.6000
0.3690	0.0000	33.6000
0.3700	0.0000	33.6000
0.3710	0.0000	33.6000
0.3720	0.0000	33.6000
0.3730	0.0000	33.6000
0.3740	0.0000	33.6000
0.3750	0.0000	33.6000
0.3760	0.0000	33.6000
0.3770	0.0000	33.6000
0.3780	0.0000	33.6000
0.3790	0.0000	33.6000
0.3800	0.0000	33.6000
0.3810	0.0000	33.6000
0.3820	0.0000	33.6000
0.3830	0.0000	33.6000
0.3840	0.0000	33.6000
0.3850	0.0000	33.6000
0.3860	0.0000	33.6000
0.3870	0.0000	33.6000
0.3880	0.0000	33.6000
0.3890	0.0000	33.6000
0.3900	0.0000	33.6000
0.3910	0.0000	33.6000
0.3920	0.0000	33.6000
0.3930	0.0000	33.6000
0.3940	0.0000	33.6000
0.3950	0.0000	33.6000
0.3960	0.0000	33.6000
0.3970	0.0000	33.6000
0.3980	0.0000	33.6000
0.3990	0.0000	33.6000
0.4000	0.0000	33.6000
0.4010	0.0000	33.6000
0.4020	0.0000	33.6000
0.4030	0.0000	33.6000
0.4040	0.0000	33.6000
0.4050	0.0000	33.6000
0.4060	0.0000	33.6000
0.4070	0.0000	33.6000
0.4080	0.0000	33.6000
0.4090	0.0000	33.6000
0.4100	0.0000	33.6000
0.4110	0.0000	33.6000
0.4120	0.0000	33.6000
0.4130	0.0000	33.6000
0.4140	0.0000	33.6000
0.4150	0.0000	33.6000
0.4160	0.0000	33.6000
0.4170	0.0000	33.6000
0.4180	0.0000	33.6000
0.4190	0.0000	33.6000
0.4200	0.0000	33.6000
0.4210	0.0000	33.6000
0.4220	0.0000	33.6000
0.4230	0.0000	33.6000
0.4240	0.0000	33.6000
0.4250	0.0000	33.6000
0.4260	0.0000	33.6000
0.4270	0.0000	33.6000
0.4280	0.0000	33.6000
0.4290	0.0000	33.6000
0.4300	0.0000	33.6000
0.4310	0.0000	33.6000
0.4320	0.0000	33.6000
0.4330	0.0000	33.6000
0.4340	0.0000	33.6000
0.4350	0.0000	33.6000
0.4360	0.0000	33.6000
0.4370	0.0000	33.6000
0.4380	0.0000	33.6000
0.4390	0.0000	33.6000
0.4400	0.0000	33.6000
0.4410	0.0000	33.6000
0.4420	0.0000	33.6000
0.4430	0.0000	33.6000
0.4440	0.0000	33.6000
0.4450	0.0000	33.6000
0.4460	0.0000	33.6000
0.4470	0.0000	33.6000
0.4480	0.0000	33.6000
0.4490	0.0000	33.6000
0.4500	0.0000	33.6000
0.4510	0.0000	33.6000
0.4520	0.0000	33.6000
0.4530	0.0000	33.6000
0.4540	0.0000	33.6000
0.4550	0.0000	33.6000
0.4560	0.0000	33.6000
0.4570	0.0000	33.6000
0.4580	0.0000	33.6000
0.4590	0.0000	33.6000
0.4600	0.0000	33.6000
0.4610	0.0000	33.6000
0.4620	0.0000	33.6000
0.4630	0.0000	33.6000
0.4640	0.0000	33.6000
0.4650	0.0000	33.6000
0.4660	0.0000	33.6000
0.4670	0.0000	33.6000
0.4680	0.0000	33.6000
0.4690	0.0000	33.6000
0.4700	0.0000	33.6000
0.4710	0.0000	33.6000
0.4720	0.0000	33.6000
0.4730	0.0000	33.6000
0.4740	0.0000	33.6000
0.4750	0.0000	33.6000
0.4760	0.0000	33.6000
0.4770	0.0000	33.6000
0.4780	0.0000	33.6000
0.4790	0.0000	33.6000
0.4800	0.0000	33.6000
0.4810	0.0000	33.6000
0.4820	0.0000	33.6000
0.4830	0.0000	33.6000
0.4840	0.0000	33.6000
0.4850	0.0000	33.6000
0.4860	0.0000	33.6000
0.4870	0.0000	33.6000
0.4880	0.0000	33.6000
0.4890	0.0000	33.6000
0.4900	0.0000	33.6000
0.4910	0.0000	33.6000
0.4920	0.0000	33.6000
0.4930	0.0000	33.6000
0.4940	0.0000	33.6000
0.4950	0.0000	33.6000
0.4960	0.0000	33.6000
0.4970	0.0000	33.6000
0.4980	0.0000	33.6000
0.4990	0.0000	33.6000
0.5000	0.0000	33.6000
0.5010	0.0000	33.6000
0.5020	0.0000	33.6000
0.5030	0.0000	33.6000
0.5040	0.0000	33.6000
0.5050	0.0000	33.6000
0.5060	0.0000	33.6000
0.5070	0.0000	33.6000
0.5080	0.0000	33.6000
0.5090	0.0000	33.6000
0.5100	0.0000	33.6000
0.5110	0.0000	33.6000
0.5120	0.0000	33.6000
0.5130	0.0000	33.6000
0.5140	0.0000	33.6000
0.5150	0.0000	33.6000
0.5160	0.0000	33.6000
0.5170	0.0000	33.6000
0.5180	0.0000	33.6000
0.5190	0.0000	33.6000
0.5200	0.0000	33.6000
0.5210	0.0000	33.6000
0.5220	0.0000	33.6000
0.5230	0.0000	33.6000
0.5240	0.0000	33.6000
0.5250	0.0000	33.6000
0.5260	0.0000	33.6000
0.5270	0.0000	33.6000
0.5280	0.0000	33.6000
0.5290	0.0000	33.6000
0.5300	0.0000	33.6000
0.5310	0.0000	33.6000
0.5320	0.0000	33.6000
0.5330	0.0000	33.6000
0.5340	0.0000	33.6000
0.5350	0.0000	33.6000
0.5360	0.0000	33.6000
0.5370	0.0000	33.6000
0.5380	0.0000	33.6000
0.5390	0.0000	33.6000
0.5400	0.0000	33.6000
0.5410	0.0000	33.6000
0.5420	0.0000	33.6000
0.5430	0.0000	33.6000
0.5440	0.0000	33.6000
